<?xml version="1.0" encoding="UTF-8" standalone="no"?>
<svg width="270px" height="125px" viewBox="0 0 270 125" version="1.1" xmlns="http://www.w3.org/2000/svg" xmlns:xlink="http://www.w3.org/1999/xlink">
    <!-- Generator: Sketch 47.1 (45422) - http://www.bohemiancoding.com/sketch -->
    <title>banner-illustration</title>
    <desc>Created with Sketch.</desc>
    <defs>
        <rect id="path-1" x="0" y="0" width="109" height="62"></rect>
    </defs>
    <g id="0.0-Home" stroke="none" stroke-width="1" fill="none" fill-rule="evenodd">
        <g id="D-0.0-Home" transform="translate(-260.000000, -1651.000000)">
            <g id="banner-04" transform="translate(240.000000, 1641.000000)">
                <g id="Bitmap" transform="translate(5.000000, 5.000000)">
                    <g id="banner-illustration" transform="translate(18.000000, 8.000000)">
                        <g id="Group-8" stroke="#FFFFFF" stroke-width="7" stroke-linecap="round">
                            <path d="M63.5,52.5 L46.5,52.5" id="Line-5" opacity="0.0700000003"></path>
                            <path d="M42.5,23.3333333 L27.5,23.3333333" id="Line-5-Copy-2" opacity="0.0700000003"></path>
                            <path d="M150.5,1.33333333 L140.5,1.33333333" id="Line-5-Copy-7" opacity="0.0700000003"></path>
                            <path d="M232.5,8.33333333 L215.5,8.33333333" id="Line-5-Copy-7" opacity="0.0700000003"></path>
                            <path d="M263.5,85.3333333 L246.5,85.3333333" id="Line-5-Copy-7" opacity="0.400000006"></path>
                            <path d="M214.5,47.3333333 L199.5,47.3333333" id="Line-5-Copy-8" opacity="0.0700000003"></path>
                            <path d="M5.5,8.33333333 L0.5,8.33333333" id="Line-5-Copy-6" opacity="0.0700000003"></path>
                            <path d="M52,68.3333333 L29,68.3333333" id="Line-5-Copy-3" opacity="0.0700000003"></path>
                            <path d="M14,68.5 L10,68.5" id="Line-5-Copy-4" opacity="0.0700000003"></path>
                        </g>
                        <g id="Group-6" transform="translate(25.000000, 10.000000)">
                            <g id="imac" transform="translate(46.000000, 9.000000)">
                                <rect id="Rectangle-30" fill="#02D557" x="1" y="0" width="119" height="85" rx="3"></rect>
                                <rect id="Rectangle-30-Copy-2" fill="#01C752" x="50" y="85" width="23" height="12"></rect>
                                <rect id="Rectangle-30-Copy-2" fill="#EAEFF2" style="mix-blend-mode: multiply;" x="50" y="85" width="23" height="2"></rect>
                                <rect id="Rectangle-30-Copy-3" fill="#00AD46" x="44" y="97" width="34" height="6" rx="1"></rect>
                                <rect id="Rectangle-30-Copy" fill="#7EEEAB" x="58" y="73" width="6" height="6" rx="3"></rect>
                                <rect id="Rectangle-30-Copy" fill="#7EEEAB" x="60" y="2" width="2" height="2" rx="1"></rect>
                                <path d="M96,51 L101,51 L101,85 L92,85 L92,55 L92,55 C92,52.790861 93.790861,51 96,51 Z" id="Rectangle-28" fill="#EAEFF2" style="mix-blend-mode: multiply;"></path>
                                <path d="M0,69 L6,69 L6,69 C7.65685425,69 9,70.3431458 9,72 L9,85 L0,85 L0,69 Z" id="Rectangle-33" fill="#EAEFF2" style="mix-blend-mode: multiply;"></path>
                                <path d="M1,0 L46,0 L46,41 L46,41 C46,42.6568542 44.6568542,44 43,44 L1,44 L1,0 Z" id="Rectangle-31" fill="#EAEFF2" style="mix-blend-mode: multiply;"></path>
                                <g id="Page-1" transform="translate(6.000000, 5.000000)">
                                    <mask id="mask-2" fill="white">
                                        <use xlink:href="#path-1"></use>
                                    </mask>
                                    <use id="Mask" fill="#7EEEAB" xlink:href="#path-1"></use>
                                </g>
                            </g>
                            <g id="note" transform="translate(133.000000, 55.000000)">
                                <path d="M13,0 L93,0 L93,0 C95.209139,-4.05812251e-16 97,1.790861 97,4 L97,53 L9,53 L9,4 L9,4 C9,1.790861 10.790861,4.05812251e-16 13,0 Z" id="Rectangle-28" fill="#02D557"></path>
                                <path d="M2,53 L102,53 L102,53 C103.104569,53 104,53.8954305 104,55 L104,57 L0,57 L0,55 L0,55 C-1.3527075e-16,53.8954305 0.8954305,53 2,53 Z" id="Rectangle-28" fill="#00AD46" transform="translate(52.000000, 55.000000) scale(1, -1) translate(-52.000000, -55.000000) "></path>
                                <rect id="Rectangle-28" fill="#9AF1C3" x="14" y="5" width="77" height="45"></rect>
                                <circle id="Oval-4" fill="#9AF1C3" cx="53" cy="3" r="1"></circle>
                            </g>
                            <g id="page" transform="translate(20.000000, 0.000000)">
                                <rect id="Rectangle-31" fill="#CAFFE3" x="0" y="0" width="68" height="48" rx="3"></rect>
                                <rect id="Rectangle-31" fill="#00AD46" x="0" y="0" width="68" height="8" rx="3"></rect>
                                <rect id="Rectangle-31-Copy" fill="#7EEEAB" x="0" y="6" width="68" height="6"></rect>
                                <rect id="Rectangle-29" fill="#02D557" x="5" y="9" width="13" height="1"></rect>
                                <path d="M39,9 L43,9 L43,10 L39,10 L39,9 Z M44,9 L48,9 L48,10 L44,10 L44,9 Z M49,9 L53,9 L53,10 L49,10 L49,9 Z M54,9 L58,9 L58,10 L54,10 L54,9 Z M59,9 L63,9 L63,10 L59,10 L59,9 Z" id="Combined-Shape" fill="#02D557"></path>
                                <g id="Group-4" transform="translate(5.000000, 17.000000)">
                                    <rect id="Rectangle-31-Copy-5" fill="#7EEEAB" x="0" y="10" width="18" height="1"></rect>
                                    <rect id="Rectangle-31-Copy-7" fill="#7EEEAB" x="0" y="13" width="18" height="1"></rect>
                                    <rect id="Rectangle-31-Copy-3" fill="#2ADD72" x="21" y="0" width="18" height="8"></rect>
                                    <rect id="Rectangle-31-Copy-6" fill="#7EEEAB" x="21" y="10" width="18" height="1"></rect>
                                    <rect id="Rectangle-31-Copy-8" fill="#7EEEAB" x="21" y="13" width="18" height="1"></rect>
                                    <rect id="Rectangle-31-Copy-7" fill="#7EEEAB" x="0" y="16" width="18" height="1"></rect>
                                    <rect id="Rectangle-31-Copy-8" fill="#7EEEAB" x="21" y="16" width="18" height="1"></rect>
                                    <rect id="Rectangle-31-Copy-4" fill="#2ADD72" x="42" y="0" width="16" height="17"></rect>
                                    <rect id="Rectangle-31-Copy-2" fill="#2ADD72" x="0" y="0" width="18" height="8"></rect>
                                </g>
                                <rect id="Rectangle-32" fill="#50E58C" x="5" y="2" width="2" height="2"></rect>
                                <rect id="Rectangle-32-Copy" fill="#02D557" x="9" y="2" width="2" height="2"></rect>
                                <rect id="Rectangle-32-Copy-2" fill="#00AD46" x="13" y="2" width="2" height="2"></rect>
                            </g>
                            <g id="phone" transform="translate(30.000000, 72.000000)">
                                <rect id="Rectangle-33" fill="#CAFFE3" x="0" y="17" width="21" height="18"></rect>
                                <path d="M0,35 L21,35 L21,37 L21,37 C21,38.6568542 19.6568542,40 18,40 L3,40 L3,40 C1.34314575,40 6.46995335e-16,38.6568542 4.4408921e-16,37 L0,35 Z" id="Rectangle-33" fill="#02D557"></path>
                                <rect id="Rectangle-33" fill="#50E58C" x="0" y="5" width="21" height="12"></rect>
                                <path d="M3,0 L18,0 L18,4.4408921e-16 C19.6568542,1.39730022e-16 21,1.34314575 21,3 L21,5 L0,5 L0,3 L4.4408921e-16,3 C2.41183085e-16,1.34314575 1.34314575,7.48448398e-16 3,4.4408921e-16 Z" id="Rectangle-33" fill="#02D557"></path>
                                <rect id="Rectangle-33-Copy-7" fill="#02D557" x="8" y="9" width="5" height="5" rx="2.5"></rect>
                                <rect id="Rectangle-33-Copy" fill="#02D557" x="3" y="21" width="15" height="1"></rect>
                                <path d="M5,23 L16,23 L16,24 L5,24 L5,23 Z M5,25 L16,25 L16,26 L5,26 L5,25 Z" id="Combined-Shape" fill="#50E58C"></path>
                                <rect id="Rectangle-33-Copy-4" fill="#02D557" x="7" y="29" width="7" height="3"></rect>
                                <rect id="Combined-Shape" fill="#9AF1C3" x="9" y="36" width="3" height="3" rx="1.5"></rect>
                            </g>
                            <g id="caneca" transform="translate(0.000000, 80.000000)">
                                <rect id="Rectangle-35" fill="#00AD46" transform="translate(4.524709, 8.619446) rotate(-7.000000) translate(-4.524709, -8.619446) " x="3.02470865" y="0.119446304" width="3" height="17"></rect>
                                <rect id="Rectangle-35-Copy" fill="#50E58C" transform="translate(9.524709, 10.619446) rotate(13.000000) translate(-9.524709, -10.619446) " x="8.02470865" y="2.1194463" width="3" height="17"></rect>
                                <polygon id="Rectangle-34" fill="#2ADD72" points="0 10 18 10 16 32 2 32"></polygon>
                            </g>
                        </g>
                    </g>
                </g>
            </g>
        </g>
    </g>
</svg>