<?xml version="1.0" encoding="UTF-8" standalone="no"?>
<svg width="94px" height="31px" viewBox="0 0 94 31" version="1.1" xmlns="http://www.w3.org/2000/svg" xmlns:xlink="http://www.w3.org/1999/xlink">
    <!-- Generator: Sketch 47.1 (45422) - http://www.bohemiancoding.com/sketch -->
    <title>Combined Shape</title>
    <desc>Created with Sketch.</desc>
    <defs></defs>
    <g id="0.0-Home" stroke="none" stroke-width="1" fill="none" fill-rule="evenodd">
        <g id="D-0.0-Home" transform="translate(-266.000000, -2561.000000)" fill-rule="nonzero" fill="#75909C">
            <g id="Section-04" transform="translate(-481.000000, 1888.000000)">
                <g id="Group-5" transform="translate(721.000000, 542.000000)">
                    <g id="Group-7" transform="translate(18.000000, 127.000000)">
                        <path d="M10.5229172,16.8161642 C13.2151792,11.7416054 17.8817669,6.24416671 23.4457752,4.43182428 C24.5825081,4.1297672 26.0782092,3.82771013 27.095286,4.61305852 C27.9927067,5.27758408 28.1123628,6.42540095 27.9328786,7.452395 C27.6935665,8.66062329 26.8559738,10.2313201 25.4799287,10.4125543 C25.2406166,10.4125543 25.0013044,10.3521429 24.8816483,10.1709087 C24.52268,9.80844016 24.52268,9.32514885 24.6423361,8.84185753 C24.8816483,7.8752749 25.779069,6.84828086 26.7961458,6.72745803 C26.9756299,6.6066352 26.9158019,6.42540095 26.8559738,6.24416671 C26.7363177,6.00252105 26.5568336,5.88169822 26.3175214,5.82128681 C25.1807885,5.70046398 24.4030239,6.36498954 23.5056032,6.96910368 C20.2748887,9.56679451 17.9415949,12.9498337 15.9672694,16.2724615 C14.3519121,19.2930322 12.9758671,22.3740144 12.6168988,25.9382878 C12.4374146,28.4755672 13.2151792,31.0128466 15.488645,32.2210749 C17.9415949,33.5501261 21.0526533,32.6439548 23.5056032,31.9794293 L25.779069,31.2544923 L30.0866883,29.9858526 C34.1549955,28.7776243 39.3002074,28.5359787 43.3086866,30.1066754 C45.7018084,31.1336695 48.2145864,32.523132 49.7701156,34.8791772 C49.7701156,34.9395886 49.7701156,35 49.7102875,35 C46.3000889,34.0334174 41.8129854,33.1272462 38.4626148,34.7583543 L38.2831307,34.6979429 C37.2660539,33.0064233 35.5310405,32.1002521 33.7361991,31.7377836 C27.9927067,31.1940809 23.266291,33.9125945 17.8817669,34.6375315 C15.1296767,34.8791772 12.1981025,34.8187658 10.283605,32.7043663 C7.29220266,29.6837955 7.65117094,24.3071796 9.02721601,20.6220834 C9.32635624,19.2930322 9.86480865,18.0243925 10.5229172,16.8161642 Z M18.4800473,18.6285067 C19.9159204,15.9704044 22.0697301,12.7685995 25.1209605,11.8020168 C25.9585531,11.6207826 26.7961458,11.681194 27.3944262,12.2248967 C28.7106432,13.5539479 28.1721908,15.7891702 27.7533945,17.359867 C27.7533945,17.4202784 27.8132226,17.5411012 27.9328786,17.5411012 C29.0696115,17.4806898 30.0268603,16.9369871 30.8644529,16.1516387 C32.6592943,14.0976506 34.5737918,11.4395484 37.5053661,11.8020168 C38.0438185,11.8624283 38.5822709,12.2248967 38.8814111,12.7081881 C39.5993477,14.2184734 38.8814111,15.8495816 37.8643343,16.9973985 C37.5053661,17.359867 36.9669136,17.661924 36.4284612,17.4806898 C36.189149,17.4202784 36.0096649,17.1786327 35.9498369,16.9369871 C35.7703527,15.909993 36.3686332,14.9434104 37.2062258,14.3997077 C37.445538,14.158062 38.1634746,14.3392963 37.9839904,13.7955935 C37.8643343,13.5539479 37.6250222,13.5539479 37.38571,13.5539479 C35.9498369,14.158062 35.0524162,15.607936 34.2148235,16.8765757 C33.1977467,18.5076838 32.3601541,20.2596149 31.7618736,22.1323687 C31.5823895,22.7968943 31.4029053,23.6426541 31.8217017,24.3071796 C32.1208419,24.6696481 32.5994663,24.8508824 33.0780906,24.7300595 C34.5139637,24.1863568 35.7105247,23.0385399 36.7874295,21.8303116 C39.2403794,18.8701523 40.5565964,15.1850561 43.847139,12.7081881 C44.8642158,11.9832511 46.3000889,11.4395484 47.5564778,12.1040739 C47.735962,12.1644853 47.9154461,12.4665424 48.1547583,12.3457196 C48.3342424,12.1644853 48.5137266,11.7416054 48.8726949,11.8020168 C49.7701156,11.8020168 50.8470204,11.7416054 51.7444411,11.8624283 L51.8042691,11.9228397 L51.5649569,12.5873652 L46.419745,23.0989513 C46.3599169,23.2197742 46.3599169,23.340597 46.3599169,23.4614198 C46.419745,23.5822427 46.6590571,23.5822427 46.7787132,23.5218313 C47.4966498,23.0989513 48.0949303,22.313603 48.5735546,21.6490774 C49.052179,21.0449633 49.4111473,20.3804377 49.7701156,19.6555007 C49.8897716,19.4742665 50.0692558,19.2326208 50.368396,19.2326208 C50.6675362,19.2930322 51.0265045,19.1722094 51.2059887,19.3534437 C50.9068484,20.2596149 50.368396,21.0449633 49.8897716,21.8907231 C48.5137266,24.065534 46.6590571,26.542402 44.1462792,27.2069275 C43.7274829,27.2673389 43.1890305,27.2673389 42.8898902,26.9652819 C42.4112659,26.6028134 42.3514378,25.9986992 42.2317817,25.4549965 C42.1719537,25.3945851 42.1121256,25.3945851 41.9924695,25.3945851 C40.9155647,26.3611677 39.7788318,27.3881618 38.2233026,27.2069275 C37.7446782,27.0861047 37.3258819,26.7236362 37.0865697,26.3007563 C36.6677734,25.5154079 36.9070856,24.5488253 36.8472575,23.7030655 C36.7874295,23.5822427 36.6677734,23.6426541 36.6079454,23.7030655 C34.9327601,25.3341737 33.1379187,26.844459 30.924281,27.2673389 C29.9072042,27.3881618 29.0097835,27.0861047 28.351675,26.3611677 C26.6764897,24.1863568 27.9927067,21.3470203 28.8901274,19.1722094 C28.9499554,19.0513866 28.8901274,18.9305638 28.7704713,18.9305638 C28.1721908,18.9909752 27.5739104,19.0513866 27.0354579,19.1722094 L26.8559738,19.4138551 C25.5397568,21.9511345 24.0440556,24.6092367 21.6509338,26.4215791 C20.633857,27.1465161 19.1979839,27.6298074 18.001423,26.9652819 C16.804862,26.1195221 16.6852059,24.6092367 16.804862,23.2197742 C17.2236584,21.5282546 17.7621108,20.0179692 18.4800473,18.6285067 Z M22.2492142,18.5076838 C21.5312777,19.9575578 20.8133411,21.4074317 20.8133411,23.0989513 C20.8731692,23.4010084 21.0526533,23.7634769 21.4116216,23.8842997 C21.7705899,24.0051226 22.0697301,23.7634769 22.3688703,23.5822427 C23.7449154,22.4344258 24.7021641,20.8033176 25.4799287,19.2930322 C25.5397568,19.1722094 25.6594129,18.9305638 25.5397568,18.8097409 C24.7021641,18.5076838 23.9243995,17.9035697 23.266291,17.1786327 L23.1466349,17.1786327 C23.0269788,17.1786327 22.9671508,17.2994556 22.9073228,17.4202784 L22.2492142,18.5076838 Z M24.4030239,15.607936 C24.462852,16.3328729 25.1209605,16.9973985 25.779069,17.2994556 C25.9585531,17.359867 26.1978653,17.4806898 26.3175214,17.2994556 C26.5568336,16.8161642 26.7363177,16.2724615 26.8559738,15.7891702 C26.9756299,15.1246446 27.095286,14.158062 26.4371775,13.7351821 C26.1978653,13.6143593 25.8987251,13.6143593 25.6594129,13.7351821 C24.9414763,13.9768278 24.4030239,14.7621762 24.4030239,15.607936 Z M41.274533,21.4678432 C41.0950488,22.0719573 40.7959086,22.7968943 40.9753927,23.4614198 C41.0352208,23.5822427 41.2147049,23.7030655 41.334361,23.7634769 C41.8728134,23.7634769 42.2916098,23.2801856 42.650578,22.8573057 C44.2659353,20.5616719 45.5223243,18.0848039 46.6590571,15.607936 C46.8385413,15.0642332 47.1376815,14.5809419 47.1376815,13.9768278 C47.1376815,13.8560049 47.0180254,13.7351821 46.8983693,13.6747707 C46.6590571,13.5539479 46.419745,13.7351821 46.2402608,13.8560049 C44.0266231,15.5475245 42.8300622,18.0243925 41.7531573,20.3804377 L41.274533,21.4678432 Z M51.9239252,15.0038218 C52.4025496,14.0372392 52.8213459,13.0102451 53.4196264,12.1040739 C53.6589386,11.8020168 54.0777349,11.8624283 54.3768751,11.8020168 L56.829825,11.8624283 L56.9494811,11.9832511 C56.5306848,12.9498337 56.1118885,13.9768278 55.573436,14.882999 C55.45378,15.1246446 55.2144678,15.3662903 54.9153275,15.4267017 C53.8982508,15.4267017 52.881174,15.4871131 51.9239252,15.4267017 C51.8042691,15.2454675 51.8640972,15.1246446 51.9239252,15.0038218 Z M54.3768751,20.0179692 C56.1118885,16.4536958 58.146042,13.0102451 61.0177883,9.98967441 C63.8297064,7.15033793 66.8809368,4.85470418 70.5902757,4.1297672 C71.6073525,4.00894438 72.7440853,4.06935579 73.5218499,4.79429276 C73.641506,4.91511559 73.8209902,5.03593842 74.0603024,4.97552701 C76.6927364,3.88812155 80.4020753,3.52565306 83.0345093,4.85470418 C84.5900385,5.64005257 86.0259116,6.6066352 87.5216128,7.51280641 C87.7010969,7.63362924 87.6412689,7.81486349 87.5216128,7.93568632 C86.6840201,8.90226895 85.9660836,9.86885158 85.188319,10.8354342 C85.1284909,10.8958456 84.9490068,10.8958456 84.8891787,10.8354342 L81.0003557,8.11692056 C79.1456863,6.84828086 77.0517047,6.00252105 74.7184109,6.36498954 C74.4790987,6.48581237 74.5987548,6.84828086 74.5389267,7.08992651 C74.5987548,9.56679451 73.7013341,11.681194 72.5646012,13.6747707 C71.6073525,15.0642332 70.5304476,16.4536958 68.9150904,16.9369871 C68.1971538,17.0578099 67.5390453,16.8765757 67.120249,16.2724615 C65.9835161,14.4601191 67.0005929,12.2853082 67.8381855,10.7146114 C68.7954343,8.96268036 70.3509635,7.33157217 71.9663207,6.12334388 C72.0261488,6.06293247 72.0859768,6.00252105 72.0261488,5.94210964 C71.8466647,5.7608754 71.6073525,5.88169822 71.3680403,5.94210964 C68.7356062,6.84828086 66.5817966,9.20432602 64.607471,11.4395484 C61.0776163,15.7891702 58.4451823,20.5012605 56.9494811,25.6966422 C56.4708567,27.6298074 55.8725763,30.6503782 57.7870738,31.9794293 C59.5220871,32.9460119 61.1972724,31.7377836 62.4536614,30.5899667 C64.4279869,28.5359787 65.7442039,26.2403449 66.2826563,23.5822427 C66.4023124,22.7968943 66.5817966,21.7094888 65.86386,21.1657861 C65.2057515,20.863729 64.6672991,21.4074317 64.2485028,21.8907231 C63.231426,23.0989513 62.8126297,24.6092367 62.6331455,26.1799335 C62.1545211,26.542402 61.6758968,26.7840476 61.1972724,27.1465161 C60.2998517,27.7506303 59.402431,28.5963901 58.6844945,29.4421499 C58.6246664,29.4421499 58.5648384,29.3817385 58.5648384,29.321327 C58.4451823,26.4215791 59.5220871,23.8842997 61.0776163,21.6490774 C62.3340053,20.1992035 63.9493625,18.9305638 65.9236881,19.3534437 C66.7612807,19.5950893 67.3595612,20.5012605 67.5390453,21.3470203 C67.8381855,24.065534 66.7014527,26.4819906 65.5048917,28.7172129 C63.5305662,31.8586064 60.4195078,35 56.4708567,34.6375315 C54.9751556,34.5167087 53.5392825,33.4897146 52.881174,32.1002521 C51.3854728,29.0796814 52.4025496,25.2133509 53.4196264,22.313603 L54.3768751,20.0179692 Z M67.8381855,14.8225876 C67.8980136,15.1850561 68.0176697,15.5475245 68.376638,15.6683474 C69.0347465,15.8495816 69.5731989,15.3662903 70.1116513,14.9434104 C71.9064927,13.0102451 72.9833975,10.7750228 73.2825378,8.23774339 C73.2825378,7.8752749 73.4021939,7.39198359 73.2227097,7.0295151 C73.1030536,7.0295151 72.9235695,7.08992651 72.8039134,7.15033793 C71.6073525,7.93568632 70.4706196,9.14391461 69.6330269,10.3521429 C68.6757782,11.7416054 67.8980136,13.131068 67.8381855,14.8225876 Z M70.3509635,23.340597 C71.7868366,21.4074317 73.7013341,19.3534437 76.0944559,19.1722094 C76.6927364,19.1722094 77.2311888,19.4138551 77.5901571,19.9575578 C78.6072339,21.4678432 77.7696412,23.4614198 77.3508449,25.0321166 C77.2910169,25.1529394 77.410673,25.2737623 77.5303291,25.3341737 C78.0089534,25.3945851 78.6072339,25.3341737 79.0260302,25.092528 L79.2055143,24.8508824 C80.9405277,19.836735 83.5131337,15.1850561 86.564364,10.7750228 C88.4788615,8.23774339 90.9318114,5.57964115 93.7437296,4.31100145 C94.4018381,4.06935579 95.4189149,3.76729872 96.0171954,4.31100145 C96.7351319,4.91511559 96.5556478,5.94210964 96.3163356,6.72745803 C96.2565076,7.452395 95.478743,7.51280641 94.9402905,7.69404066 L94.8804625,7.69404066 C94.8804625,7.27116076 95.1197747,6.84828086 95.2394308,6.42540095 C95.2394308,6.1837553 95.2992588,6.00252105 95.1796027,5.7608754 C95.0599466,5.51922974 94.7608064,5.57964115 94.5813223,5.70046398 C93.6240735,6.1837553 92.8463089,7.0295151 92.1283724,7.8752749 C89.3762822,11.0770799 87.4019567,14.7017647 85.5472873,18.2660382 C84.9490068,19.5346779 84.2908983,20.7429062 83.8122739,22.0719573 C83.8122739,22.1323687 83.8122739,22.1927801 83.872102,22.2531915 C84.2908983,22.2531915 84.5302105,21.8303116 84.8891787,21.588666 C87.2823006,19.3534437 89.2566261,16.8161642 91.1112956,14.2184734 C91.4702638,14.0372392 91.9488882,14.0372392 92.3676845,13.9768278 L92.4275126,13.9768278 C92.4275126,14.3392963 92.1283724,14.5809419 91.9488882,14.9434104 C89.9147346,17.9035697 87.6412689,20.6824948 84.8293507,23.2801856 L82.7951971,24.9717052 C82.3764008,25.3341737 82.3764008,25.9382878 82.1370886,26.4215791 C81.7182923,27.6902188 81.359324,29.01927 81.299496,30.4691439 C81.299496,30.7107896 81.4191521,30.9524352 81.5986362,31.0732581 C82.1370886,31.3149037 82.5558849,30.771201 82.9148532,30.4691439 C85.6669434,27.2673389 86.8635043,23.340597 90.2138749,20.5012605 C91.2907797,19.5950893 92.7864809,18.8701523 94.1625259,19.5346779 C94.4018381,19.5950893 94.5813223,19.9575578 94.8804625,19.7763236 C95.1197747,19.6555007 95.1197747,19.2930322 95.4189149,19.2930322 C96.3761636,19.2930322 97.4530685,19.2326208 98.4103172,19.3534437 C98.4701453,19.4138551 98.4103172,19.5346779 98.4103172,19.6555007 L97.7522087,21.0449633 L93.5642455,29.5629727 C93.3847613,29.9254412 93.1454491,30.3483211 93.1454491,30.8316124 C93.2052772,31.0128466 93.3847613,31.0128466 93.5642455,31.0128466 C94.3420101,30.5899667 94.9402905,29.8650298 95.4189149,29.0796814 C95.9573673,28.3547444 96.3163356,27.569396 96.854788,26.844459 C97.0941002,26.7236362 97.4530685,26.7840476 97.7522087,26.7840476 C97.9316928,26.9652819 97.6923807,27.1465161 97.6923807,27.3277504 C96.4359917,29.9254412 94.7608064,32.7043663 92.0685443,34.1542402 C91.4702638,34.4562973 90.5728432,34.7583543 89.9147346,34.3958859 C89.3762822,34.0334174 89.4361103,33.3084804 89.1967981,32.8251891 C89.13697,32.7647777 89.0173139,32.7647777 88.9574859,32.8251891 C87.820753,33.8521831 86.6241921,34.9395886 85.0686629,34.5167087 C84.1114141,34.0334174 83.9917581,32.9460119 83.93193,31.9794293 C83.872102,31.9190179 83.93193,31.8586064 83.872102,31.798195 L83.7524459,31.8586064 C82.675541,33.1876576 81.299496,34.8187658 79.4448265,34.6375315 C78.72689,34.5771201 78.1286095,33.9125945 77.9491254,33.248069 C77.2910169,31.1940809 78.0089534,28.9588586 78.4277497,26.9652819 C78.4277497,26.844459 78.3080937,26.7236362 78.1884376,26.7236362 L76.6329084,26.7236362 L76.3935962,27.0256933 C75.2568633,29.2609156 74.0004743,31.4357265 72.0859768,33.3084804 C71.0689,34.2146516 69.8125111,35 68.376638,34.5771201 C67.180077,34.0938288 66.8809368,32.7647777 66.8809368,31.5565494 C67.3595612,28.4151558 68.7356062,25.817465 70.3509635,23.340597 Z M70.7697598,30.1670868 C70.7697598,30.5899667 71.009072,31.0128466 71.4278683,31.1940809 C71.7270086,31.3149037 72.0261488,31.1940809 72.265461,31.0732581 C73.7013341,29.9858526 74.5389267,28.3547444 75.3166913,26.844459 C75.3765194,26.7236362 75.4363474,26.4819906 75.2568633,26.3611677 C74.5389267,25.9986992 73.7611621,25.3945851 73.2227097,24.7300595 C73.1628817,24.6696481 72.9833975,24.6696481 72.9235695,24.6696481 C72.3851171,25.3945851 72.0261488,26.1799335 71.6671805,27.0256933 C71.2483842,27.9922759 70.7697598,28.9588586 70.7697598,30.1670868 Z M74.3594426,23.1593628 C74.4192706,23.9447112 75.0175511,24.6696481 75.7354877,24.9112938 C75.8551438,24.9717052 76.0944559,25.0321166 76.214112,24.8508824 C76.6329084,23.8842997 77.0517047,22.7364829 76.8123925,21.6490774 C76.7525644,21.4074317 76.5132523,21.1053747 76.214112,21.0449633 C75.9149718,20.9845518 75.6756596,21.0449633 75.4363474,21.1657861 C74.7184109,21.5282546 74.4192706,22.313603 74.3594426,23.1593628 Z M88.1198933,29.8650298 C88.1198933,30.2274983 88.0002372,30.7107896 88.2993774,30.9524352 C88.4190335,31.1336695 88.6583457,31.1336695 88.8976579,31.0732581 C89.6155944,30.7107896 90.0942188,29.9254412 90.5728432,29.2609156 C92.0685443,26.9048705 93.2052772,24.3675911 94.222354,21.8303116 C94.282182,21.588666 94.3420101,21.2866089 94.1026979,21.1657861 C93.5044174,20.863729 93.0257931,21.5282546 92.5471687,21.8907231 C90.5728432,23.8842997 89.4959383,26.3007563 88.5386896,28.7172129 L88.1198933,29.8650298 Z M90.9916395,11.0770799 L92.3078565,9.32514885 L92.4873406,9.14391461 C96.3163356,9.08350319 99.3077379,6.78786944 102,4.06935579 C102,4.43182428 101.820516,4.79429276 101.70086,5.09634984 C99.9060184,9.32514885 95.6582271,13.0102451 90.9916395,13.0706565 L89.9147346,13.0706565 C89.7352505,13.0102451 89.8549066,12.8290109 89.9147346,12.7081881 L90.9916395,11.0770799 Z M97.2101911,35 C96.5799531,35 96.0127389,34.459695 96.0127389,33.7843137 C96.0127389,33.1089325 96.5799531,32.5686275 97.2101911,32.5686275 C97.8404291,32.5686275 98.4076433,33.0413943 98.4076433,33.7843137 C98.4076433,34.459695 97.8404291,35 97.2101911,35 Z" id="Combined-Shape"></path>
                    </g>
                </g>
            </g>
        </g>
    </g>
</svg>