<?xml version="1.0" encoding="UTF-8" standalone="no"?>
<svg width="34px" height="34px" viewBox="0 0 34 34" version="1.1" xmlns="http://www.w3.org/2000/svg" xmlns:xlink="http://www.w3.org/1999/xlink">
    <!-- Generator: Sketch 47.1 (45422) - http://www.bohemiancoding.com/sketch -->
    <title>icon-linkedin</title>
    <desc>Created with Sketch.</desc>
    <defs></defs>
    <g id="0.0-Home" stroke="none" stroke-width="1" fill="none" fill-rule="evenodd">
        <g id="icon-linkedin" fill="#2ADD72">
            <path d="M29,18.9354839 C29,14.0967742 26.483871,11.7741935 23.0967742,11.7741935 C20.3870968,11.7741935 18.6451613,13.3225806 18.0645161,14.3870968 L17.9677419,14.3870968 L17.6774194,12.1612903 L13.2258065,12.1612903 C13.3225806,13.6129032 13.3225806,15.3548387 13.3225806,17.3870968 L13.3225806,28.516129 L18.4516129,28.516129 L18.4516129,19.0322581 C18.4516129,18.5483871 18.4516129,18.0645161 18.6451613,17.7741935 C18.9354839,16.8064516 19.8064516,15.7419355 21.2580645,15.7419355 C23.0967742,15.7419355 23.7741935,17.1935484 23.7741935,19.3225806 L23.7741935,28.516129 L28.9032258,28.516129 L28.9032258,18.9354839 L29,18.9354839 Z M5.19354839,28.6129032 L10.2258065,28.6129032 L10.2258065,12.1612903 L5.19354839,12.1612903 L5.19354839,28.6129032 Z M10.4193548,7.51612903 C10.4193548,6.06451613 9.35483871,5 7.70967742,5 C6.16129032,5 5,6.06451613 5,7.51612903 C5,8.96774194 6.06451613,10.0322581 7.70967742,10.0322581 C9.35483871,10.0322581 10.4193548,9.06451613 10.4193548,7.51612903 L10.4193548,7.51612903 Z" id="Linkedin-Icon-Copy"></path>
        </g>
    </g>
</svg>