<?xml version="1.0" encoding="UTF-8" standalone="no"?>
<svg width="34px" height="34px" viewBox="0 0 34 34" version="1.1" xmlns="http://www.w3.org/2000/svg" xmlns:xlink="http://www.w3.org/1999/xlink">
    <!-- Generator: Sketch 47.1 (45422) - http://www.bohemiancoding.com/sketch -->
    <title>icon-facebook</title>
    <desc>Created with Sketch.</desc>
    <defs></defs>
    <g id="0.0-Home" stroke="none" stroke-width="1" fill="none" fill-rule="evenodd">
        <g id="icon-facebook" fill="#2ADD72">
            <path d="M20.4762905,8.78891109 C21.1362464,8.78891109 22.0331097,8.90736472 22.7607534,9.05966225 C22.9299729,9.09350614 23.1161143,9.05966225 23.2684118,8.95813057 C23.4207093,8.85659888 23.522241,8.68737941 23.539163,8.51815993 L23.9960555,5.21838021 C24.0298994,4.91378516 23.843758,4.59226816 23.522241,4.50765842 C22.3377047,4.16921947 21.0516367,4 19.7148029,4 C15.6704575,4 13.7075116,5.92910199 13.7075116,9.92268156 L13.7075116,11.6656421 L11.643034,11.6656421 C11.2876731,11.6656421 11,11.9533152 11,12.3086761 L11,15.6930656 C11,16.0653484 11.2876731,16.3530215 11.643034,16.3530215 L13.7075116,16.3530215 L13.7075116,29.3490771 C13.7075116,29.704438 13.9951847,29.9921111 14.3505456,29.9921111 L18.5810324,29.9921111 C18.9194713,29.9921111 19.2071445,29.704438 19.2071445,29.3490771 L19.2071445,16.3530215 L22.6253778,16.3530215 C22.9638168,16.3530215 23.2345679,16.0822704 23.2684118,15.7438314 L23.5053191,12.359442 C23.522241,12.1733006 23.4545532,12.0040811 23.3360996,11.8687055 C23.217646,11.7333299 23.0484265,11.6656421 22.879207,11.6656421 L19.2071445,11.6656421 L19.2071445,10.1765108 C19.2071445,9.05966225 19.3255981,8.78891109 20.4762905,8.78891109 L20.4762905,8.78891109 Z" id="facebook-ico-copy"></path>
        </g>
    </g>
</svg>