<?xml version="1.0" encoding="UTF-8" standalone="no"?>
<svg width="107px" height="96px" viewBox="0 0 107 96" version="1.1" xmlns="http://www.w3.org/2000/svg" xmlns:xlink="http://www.w3.org/1999/xlink">
    <!-- Generator: Sketch 47.1 (45422) - http://www.bohemiancoding.com/sketch -->
    <title>icon-home-applicant</title>
    <desc>Created with Sketch.</desc>
    <defs>
        <rect id="path-1" x="0" y="0" width="96" height="96" rx="20"></rect>
        <path d="M63,83 L63,97" id="path-3"></path>
        <filter x="-125.0%" y="-17.9%" width="350.0%" height="135.7%" filterUnits="objectBoundingBox" id="filter-4">
            <feOffset dx="3" dy="0" in="SourceAlpha" result="shadowOffsetInner1"></feOffset>
            <feComposite in="shadowOffsetInner1" in2="SourceAlpha" operator="arithmetic" k2="-1" k3="1" result="shadowInnerInner1"></feComposite>
            <feColorMatrix values="0 0 0 0 0.517647059   0 0 0 0 0.792156863   0 0 0 0 0.607843137  0 0 0 1 0" type="matrix" in="shadowInnerInner1"></feColorMatrix>
        </filter>
        <linearGradient x1="50%" y1="0%" x2="50%" y2="73.1146365%" id="linearGradient-5">
            <stop stop-color="#E9E9E9" offset="0%"></stop>
            <stop stop-color="#FFFFFF" offset="100%"></stop>
        </linearGradient>
        <linearGradient x1="13.4426818%" y1="36.5573182%" x2="86.5573182%" y2="36.5573182%" id="linearGradient-6">
            <stop stop-color="#E9E9E9" offset="0%"></stop>
            <stop stop-color="#FFFFFF" offset="100%"></stop>
        </linearGradient>
        <linearGradient x1="86.5573182%" y1="36.5573182%" x2="13.4426818%" y2="36.5573182%" id="linearGradient-7">
            <stop stop-color="#E9E9E9" offset="0%"></stop>
            <stop stop-color="#FFFFFF" offset="100%"></stop>
        </linearGradient>
        <path d="M102.5,62 L91.5,62 C89.5670034,62 88,63.5670034 88,65.5 C88,67.4329966 89.5670034,69 91.5,69 L102.5,69 C104.432997,69 106,67.4329966 106,65.5 C106,63.5670034 104.432997,62 102.5,62 Z" id="path-8"></path>
        <filter x="-11.1%" y="-14.3%" width="116.7%" height="157.1%" filterUnits="objectBoundingBox" id="filter-9">
            <feOffset dx="-1" dy="2" in="SourceAlpha" result="shadowOffsetOuter1"></feOffset>
            <feColorMatrix values="0 0 0 0 1   0 0 0 0 1   0 0 0 0 1  0 0 0 1 0" type="matrix" in="shadowOffsetOuter1"></feColorMatrix>
        </filter>
        <path d="M14.5,34 L3.5,34 C1.56700338,34 0,35.5670034 0,37.5 C0,39.4329966 1.56700338,41 3.5,41 L14.5,41 C16.4329966,41 18,39.4329966 18,37.5 C18,35.5670034 16.4329966,34 14.5,34 Z" id="path-10"></path>
        <filter x="-11.1%" y="-14.3%" width="116.7%" height="157.1%" filterUnits="objectBoundingBox" id="filter-11">
            <feOffset dx="-1" dy="2" in="SourceAlpha" result="shadowOffsetOuter1"></feOffset>
            <feColorMatrix values="0 0 0 0 1   0 0 0 0 1   0 0 0 0 1  0 0 0 1 0" type="matrix" in="shadowOffsetOuter1"></feColorMatrix>
        </filter>
    </defs>
    <g id="0.0-Home" stroke="none" stroke-width="1" fill="none" fill-rule="evenodd">
        <g id="D-0.0-Home" transform="translate(-594.000000, -832.000000)">
            <g id="Section-02" transform="translate(236.000000, 726.000000)">
                <g id="Title-of-this-column-+-Nunc-quis-massa-vita-Copy-+-Rectangle-15-+-Line-+-Line-3-Copy-46" transform="translate(359.000000, 106.000000)">
                    <g id="icon-home-applicant">
                        <g id="Oval-2-+-Line-4-Mask" transform="translate(5.000000, 0.000000)">
                            <mask id="mask-2" fill="white">
                                <use xlink:href="#path-1"></use>
                            </mask>
                            <use id="Mask" fill="#7EEEAB" xlink:href="#path-1"></use>
                            <path d="M95,96 C95,85.5065898 80.4492544,77 62.5,77 C44.5507456,77 30,85.5065898 30,96" id="Oval-2" fill="#00AD46" mask="url(#mask-2)"></path>
                            <g id="Line-4" mask="url(#mask-2)">
                                <use fill="#FFFFFF" fill-rule="evenodd" xlink:href="#path-3"></use>
                                <use fill="black" fill-opacity="1" filter="url(#filter-4)" xlink:href="#path-3"></use>
                                <use stroke="#02D557" stroke-width="2" xlink:href="#path-3"></use>
                            </g>
                        </g>
                        <path d="M50.5,55.5 L33.5,55.5" id="Line-5" stroke="#9AF1C3" stroke-width="7" stroke-linecap="round"></path>
                        <g id="Group-13" transform="translate(68.000000, 46.500000) scale(-1, 1) translate(-68.000000, -46.500000) translate(39.000000, 3.000000)">
                            <polygon id="Rectangle-7" fill="#02D557" transform="translate(36.666326, 79.266194) rotate(-45.000000) translate(-36.666326, -79.266194) " points="30.6807324 74.9758371 40.7669404 74.9758371 42.6519187 79.0847823 30.6807324 83.5565505"></polygon>
                            <polygon id="Rectangle-7-Copy" fill="#02D557" transform="translate(20.269719, 79.265815) scale(-1, 1) rotate(-45.000000) translate(-20.269719, -79.265815) " points="14.2844372 74.9756821 24.3701198 74.9756821 26.2549999 79.0844133 14.2844372 83.5559485"></polygon>
                            <polyline id="Combined-Shape" fill="url(#linearGradient-5)" points="21 66 21 75 22.0714286 76 28.5 82 34.9285714 76 36 75 36 66"></polyline>
                            <path d="M53,28 L53,45 L53,45 C53,58.254834 42.254834,69 29,69 L29,69 L29,69 C15.745166,69 5,58.254834 5,45 L5,28 L5,28" id="Rectangle-4" fill="#FFFFFF"></path>
                            <path d="M25,47 L30,47 L30,53 L25,53 L25,53 C23.3431458,53 22,51.6568542 22,50 L22,50 L22,50 C22,48.3431458 23.3431458,47 25,47 Z" id="Rectangle-5" fill="url(#linearGradient-6)"></path>
                            <path d="M58,37 L58,37 L58,47 L58,47 L58,47 C55.2385763,47 53,44.7614237 53,42 L53,42 L53,42 C53,39.2385763 55.2385763,37 58,37 Z" id="Rectangle-5-Copy" fill="url(#linearGradient-7)" transform="translate(55.500000, 42.000000) scale(-1, 1) translate(-55.500000, -42.000000) "></path>
                            <path d="M29.2306404,7 L42,7 C49.1797017,7 55,12.8202983 55,20 L55,31.5 L55,38 C55,39.6568542 53.6568542,41 52,41 C50.3431458,41 49,39.6568542 49,38 L49,32 L16,32 C7.163444,32 0,24.836556 0,16 C0,7.163444 7.163444,0 16,0 C16.6776911,0 17.3455415,0.0421327048 18.0010748,0.123921578 L18.0010748,0.123921578 C18.0671937,3.93274382 21.1753988,7 25,7 L27.1153202,7 L29.2306404,7 Z" id="Combined-Shape" fill="#2ADD72"></path>
                            <path d="M5,37 L5,37 L5,47 L5,47 L5,47 C2.23857625,47 3.38176876e-16,44.7614237 0,42 L0,42 L0,42 C-3.38176876e-16,39.2385763 2.23857625,37 5,37 Z" id="Rectangle-5" fill="url(#linearGradient-7)"></path>
                        </g>
                        <g id="Line-5-Copy" fill-rule="nonzero">
                            <use fill="black" fill-opacity="1" filter="url(#filter-9)" xlink:href="#path-8"></use>
                            <use fill="#7EEEAB" fill-rule="evenodd" xlink:href="#path-8"></use>
                        </g>
                        <g id="Line-5-Copy-5" fill-rule="nonzero">
                            <use fill="black" fill-opacity="1" filter="url(#filter-11)" xlink:href="#path-10"></use>
                            <use fill="#7EEEAB" fill-rule="evenodd" xlink:href="#path-10"></use>
                        </g>
                        <path d="M36,19.3333333 L30.5,19.3333333" id="Line-5-Copy-2" stroke="#9AF1C3" stroke-width="7" stroke-linecap="round"></path>
                        <path d="M39,71.3333333 L26,71.3333333" id="Line-5-Copy-3" stroke="#9AF1C3" stroke-width="7" stroke-linecap="round"></path>
                        <path d="M17,71.5 L15,71.5" id="Line-5-Copy-4" stroke="#9AF1C3" stroke-width="7" stroke-linecap="round"></path>
                    </g>
                </g>
            </g>
        </g>
    </g>
</svg>