<?xml version="1.0" encoding="UTF-8" standalone="no"?>
<svg width="80px" height="80px" viewBox="0 0 80 80" version="1.1" xmlns="http://www.w3.org/2000/svg" xmlns:xlink="http://www.w3.org/1999/xlink">
    <!-- Generator: Sketch 47.1 (45422) - http://www.bohemiancoding.com/sketch -->
    <title>icon-services-pact</title>
    <desc>Created with Sketch.</desc>
    <defs></defs>
    <g id="0.0-Home" stroke="none" stroke-width="1" fill="none" fill-rule="evenodd">
        <g id="D-0.0-Home" transform="translate(-960.000000, -1376.000000)">
            <g id="Section-03" transform="translate(240.000000, 1230.000000)">
                <g id="IE" transform="translate(720.000000, 96.000000)">
                    <g id="proposta-convenio" transform="translate(0.000000, 50.000000)">
                        <g id="icon-services-pact">
                            <circle id="Oval-32-Copy-4" fill="#7EEEAB" cx="40" cy="40" r="40"></circle>
                            <path d="M76.218196,23 C78.6440806,28.1593385 80,33.9213233 80,40 C80,61.0822253 63.6901978,78.3550921 43,79.8891941 L43,23 L76.218196,23 Z" id="Combined-Shape" fill="#2ADD72"></path>
                            <path d="M33.1658875,1.15463195e-14 C35.6245808,5.18759229 37,10.9885759 37,17.1108059 C37,38.1930312 20.6901978,55.465898 1.53554947e-12,57 L0,2.84217094e-14 L33.1658875,2.84217094e-14 Z" id="Combined-Shape-Copy-3" fill="#2ADD72" transform="translate(18.500000, 28.500000) scale(-1, -1) translate(-18.500000, -28.500000) "></path>
                            <path d="M59,41 L59,39 L80,39 L80,41 L59,41 Z M53,49 L53,47 L79,47 L79,49 L53,49 Z M53,57 L53,55 L77,55 L77,57 L53,57 Z M53,65 L53,63 L72,63 L72,65 L53,65 Z" id="Combined-Shape" fill="#7EEEAB" fill-rule="nonzero"></path>
                            <polygon id="Line-7-Copy-4" fill="#7EEEAB" fill-rule="nonzero" points="0 41 22 41 22 39 0 39"></polygon>
                            <polygon id="Line-7-Copy-5" fill="#7EEEAB" fill-rule="nonzero" points="1 33 27 33 27 31 1 31"></polygon>
                            <polygon id="Line-7-Copy-6" fill="#7EEEAB" fill-rule="nonzero" points="3 25 27 25 27 23 3 23"></polygon>
                            <polygon id="Line-7-Copy-7" fill="#7EEEAB" fill-rule="nonzero" points="8 17 27 17 27 15 8 15"></polygon>
                            <g id="Group-21" transform="translate(48.000000, 27.000000)" fill-rule="nonzero" fill="#FFFFFF">
                                <path d="M5,3.36396103 L1.70710678,6.65685425 C1.31658249,7.04737854 0.683417511,7.04737854 0.292893219,6.65685425 C-0.0976310729,6.26632996 -0.0976310729,5.63316498 0.292893219,5.24264069 L5.24264069,0.292893219 C5.63316498,-0.0976310729 6.26632996,-0.0976310729 6.65685425,0.292893219 L11.6066017,5.24264069 C11.997126,5.63316498 11.997126,6.26632996 11.6066017,6.65685425 C11.2160774,7.04737854 10.5829124,7.04737854 10.1923882,6.65685425 L7,3.46446609 L7,15.5 C7,16.0522847 6.55228475,16.5 6,16.5 C5.44771525,16.5 5,16.0522847 5,15.5 L5,3.36396103 Z" id="Combined-Shape"></path>
                            </g>
                            <g id="Group-21-Copy" transform="translate(26.000000, 44.500000) scale(1, -1) translate(-26.000000, -44.500000) translate(20.000000, 36.000000)" fill-rule="nonzero" fill="#FFFFFF">
                                <path d="M5,3.36396103 L1.70710678,6.65685425 C1.31658249,7.04737854 0.683417511,7.04737854 0.292893219,6.65685425 C-0.0976310729,6.26632996 -0.0976310729,5.63316498 0.292893219,5.24264069 L5.24264069,0.292893219 C5.63316498,-0.0976310729 6.26632996,-0.0976310729 6.65685425,0.292893219 L11.6066017,5.24264069 C11.997126,5.63316498 11.997126,6.26632996 11.6066017,6.65685425 C11.2160774,7.04737854 10.5829124,7.04737854 10.1923882,6.65685425 L7,3.46446609 L7,15.5 C7,16.0522847 6.55228475,16.5 6,16.5 C5.44771525,16.5 5,16.0522847 5,15.5 L5,3.36396103 Z" id="Combined-Shape"></path>
                            </g>
                        </g>
                    </g>
                </g>
            </g>
        </g>
    </g>
</svg>