<?xml version="1.0" encoding="UTF-8" standalone="no"?>
<svg width="16px" height="16px" viewBox="0 0 16 16" version="1.1" xmlns="http://www.w3.org/2000/svg" xmlns:xlink="http://www.w3.org/1999/xlink">
    <!-- Generator: Sketch 47.1 (45422) - http://www.bohemiancoding.com/sketch -->
    <title>search icon</title>
    <desc>Created with Sketch.</desc>
    <defs></defs>
    <g id="0.0-Home" stroke="none" stroke-width="1" fill="none" fill-rule="evenodd">
        <g id="D-0.0-Home" transform="translate(-1168.000000, -2936.000000)" fill="#FFFFFF">
            <g id="Section-05" transform="translate(-90.000000, 2847.000000)">
                <g id="Search-box/Round-Corner-Rectangle-Copy" transform="translate(810.000000, 73.000000)">
                    <path d="M459.076923,22.7692308 C459.076923,25.1442308 457.144231,27.0769231 454.769231,27.0769231 C452.394231,27.0769231 450.461538,25.1442308 450.461538,22.7692308 C450.461538,20.3942308 452.394231,18.4615385 454.769231,18.4615385 C457.144231,18.4615385 459.076923,20.3942308 459.076923,22.7692308 L459.076923,22.7692308 Z M464,30.7692308 C464,30.4423077 463.865385,30.125 463.644231,29.9038462 L460.346154,26.6057692 C461.125,25.4807692 461.538462,24.1346154 461.538462,22.7692308 C461.538462,19.0288462 458.509615,16 454.769231,16 C451.028846,16 448,19.0288462 448,22.7692308 C448,26.5096154 451.028846,29.5384615 454.769231,29.5384615 C456.134615,29.5384615 457.480769,29.125 458.605769,28.3461538 L461.903846,31.6346154 C462.125,31.8653846 462.442308,32 462.769231,32 C463.442308,32 464,31.4423077 464,30.7692308 L464,30.7692308 Z" id="search-icon"></path>
                </g>
            </g>
        </g>
    </g>
</svg>