<?xml version="1.0" encoding="UTF-8" standalone="no"?>
<svg width="34px" height="34px" viewBox="0 0 34 34" version="1.1" xmlns="http://www.w3.org/2000/svg" xmlns:xlink="http://www.w3.org/1999/xlink">
    <!-- Generator: Sketch 47.1 (45422) - http://www.bohemiancoding.com/sketch -->
    <title>icon-twitter</title>
    <desc>Created with Sketch.</desc>
    <defs></defs>
    <g id="0.0-Home" stroke="none" stroke-width="1" fill="none" fill-rule="evenodd">
        <g id="icon-twitter" fill-rule="nonzero" fill="#2ADD72">
            <path d="M26.7487238,11.9067803 C26.7647966,12.1226143 26.7647966,12.3361522 26.7647966,12.5519863 C26.7647966,19.1211479 21.7661721,26.68682 12.629963,26.68682 C9.81493602,26.68682 7.19967034,25.8717021 5,24.4573003 C5.39952259,24.5032224 5.78526854,24.5192952 6.20086387,24.5192952 C8.52222788,24.5192952 10.6599034,23.7340266 12.3682068,22.3953962 C10.1846092,22.3517703 8.35231597,20.9212957 7.7231827,18.951236 C8.03086101,18.9971582 8.33853933,19.0293037 8.66229039,19.0293037 C9.10773512,19.0293037 9.55317984,18.9673088 9.96877518,18.8593918 C7.69103721,18.3978743 5.98502983,16.3979653 5.98502983,13.9824608 L5.98502983,13.9227621 C6.6463086,14.2901391 7.41550438,14.5220459 8.23062231,14.5518954 C6.89199203,13.6610059 6.01487922,12.1386871 6.01487922,10.416607 C6.01487922,9.49127592 6.26285875,8.6463086 6.69223073,7.90925831 C9.13758451,10.9217505 12.8136516,12.8918102 16.9351633,13.105348 C16.8593918,12.737971 16.8134696,12.3522251 16.8134696,11.9687752 C16.8134696,9.23181583 19.0269166,7 21.7799488,7 C23.2104232,7 24.5031314,7.60157999 25.4100936,8.57053707 C26.5328899,8.35470302 27.609764,7.93681159 28.5649443,7.3696732 C28.1929751,8.52231883 27.4100027,9.49127592 26.3790506,10.1089287 C27.3778572,10.0010116 28.3491104,9.7231827 29.2399998,9.33973286 C28.5649443,10.3247627 27.717681,11.1995794 26.7487238,11.9067803" id="icon-tt-copy"></path>
        </g>
    </g>
</svg>