<?xml version="1.0" encoding="UTF-8" standalone="no"?>
<svg width="6px" height="9px" viewBox="0 0 6 9" version="1.1" xmlns="http://www.w3.org/2000/svg" xmlns:xlink="http://www.w3.org/1999/xlink">
    <!-- Generator: Sketch 47.1 (45422) - http://www.bohemiancoding.com/sketch -->
    <title>Icons/Close</title>
    <desc>Created with Sketch.</desc>
    <defs></defs>
    <g id="Symbols" stroke="none" stroke-width="1" fill="none" fill-rule="evenodd">
        <g id="Link" transform="translate(-48.000000, -12.000000)" fill="#02D557">
            <path d="M52.8006544,15.8341804 L49.5210963,12.1591305 C49.4298305,12.0568323 49.3030725,12 49.1763145,12 C49.0495565,12 48.9227984,12.0568323 48.8315327,12.1591305 L48.141969,12.9320501 C48.0507032,13.0343483 48,13.1764291 48,13.31851 C48,13.4605908 48.0507032,13.6026716 48.141969,13.7049698 L50.6365669,16.5 L48.141969,19.2950302 C48.0507032,19.3973284 48,19.5394092 48,19.68149 C48,19.8235709 48.0507032,19.9656517 48.141969,20.0679499 L48.8315327,20.8408695 C48.9227984,20.9431677 49.0495565,21 49.1763145,21 C49.3030725,21 49.4298305,20.9431677 49.5210963,20.8408695 L52.8006544,17.1658196 L52.8006544,17.1658196 C53.1391707,16.7864806 53.1391707,16.2135194 52.8006544,15.8341804 Z" id="Icons/Close"></path>
        </g>
    </g>
</svg>