<?xml version="1.0" encoding="UTF-8" standalone="no"?>
<svg width="17px" height="12px" viewBox="0 0 17 12" version="1.1" xmlns="http://www.w3.org/2000/svg" xmlns:xlink="http://www.w3.org/1999/xlink">
    <!-- Generator: Sketch 47.1 (45422) - http://www.bohemiancoding.com/sketch -->
    <title>Combined Shape</title>
    <desc>Created with Sketch.</desc>
    <defs></defs>
    <g id="Symbols" stroke="none" stroke-width="1" fill="none" fill-rule="evenodd">
        <g id="Navigation-button/Next-circle-(pressed)" transform="translate(-9.000000, -11.000000)" fill-rule="nonzero" fill="#FFFFFF">
            <g id="Group">
                <g id="Arrow" transform="translate(9.000000, 11.000000)">
                    <path d="M3.61426775,7 L6.4819716,9.91395713 C6.8693593,10.307593 6.86429414,10.9407377 6.47065825,11.3281254 C6.07702236,11.7155131 5.44387764,11.710448 5.05648994,11.3168121 L0.287259172,6.47065825 C-0.0979389912,6.07924721 -0.0954238066,5.45044101 0.292893219,5.06212399 L5.06212399,0.292893219 C5.45264828,-0.0976310729 6.08581326,-0.0976310729 6.47633755,0.292893219 C6.86686184,0.683417511 6.86686184,1.31658249 6.47633755,1.70710678 L3.18344433,5 L16,5 C16.5522847,5 17,5.44771525 17,6 C17,6.55228475 16.5522847,7 16,7 L3.61426775,7 Z" id="Combined-Shape"></path>
                </g>
            </g>
        </g>
    </g>
</svg>