<?xml version="1.0" encoding="UTF-8" standalone="no"?>
<svg width="14px" height="14px" viewBox="0 0 14 14" version="1.1" xmlns="http://www.w3.org/2000/svg" xmlns:xlink="http://www.w3.org/1999/xlink">
    <!-- Generator: Sketch 47.1 (45422) - http://www.bohemiancoding.com/sketch -->
    <title>icon-h6-lock</title>
    <desc>Created with Sketch.</desc>
    <defs></defs>
    <g id="0.0-Home" stroke="none" stroke-width="1" fill="none" fill-rule="evenodd">
        <g id="icon-h6-lock" fill="#253238">
            <path d="M4.00002728,6 L4.00002728,4.4999045 L4.00002728,4.4999045 C4.00002728,2.56696062 5.5669879,1 7.49993178,1 L7.49993178,1 C9.43287567,1 10.9998363,2.56696062 10.9998363,4.4999045 L10.9998363,4.4999045 L10.9998363,6 L12,6 C12.5522847,6 13,6.44771525 13,7 L13,12 C13,12.5522847 12.5522847,13 12,13 L3,13 C2.44771525,13 2,12.5522847 2,12 L2,7 C2,6.44771525 2.44771525,6 3,6 L3,6 L4.00002728,6 Z M9,6 L9,4.5 L9,4.5 C9,3.67157288 8.32842712,3 7.5,3 C6.67157288,3 6,3.67157288 6,4.5 L6,6 L9,6 Z" id="Combined-Shape"></path>
        </g>
    </g>
</svg>