<?xml version="1.0" encoding="UTF-8" standalone="no"?>
<svg width="34px" height="34px" viewBox="0 0 34 34" version="1.1" xmlns="http://www.w3.org/2000/svg" xmlns:xlink="http://www.w3.org/1999/xlink">
    <!-- Generator: Sketch 47.1 (45422) - http://www.bohemiancoding.com/sketch -->
    <title>icon-google-plus</title>
    <desc>Created with Sketch.</desc>
    <defs></defs>
    <g id="0.0-Home" stroke="none" stroke-width="1" fill="none" fill-rule="evenodd">
        <g id="icon-google-plus" fill-rule="nonzero" fill="#2ADD72">
            <path d="M0.0249130006,16.5283524 C0.189175322,10.7791712 5.11704496,5.85130157 10.5377016,6.01556389 C13.1658987,5.85130157 15.6298335,7.00113781 17.6009814,8.80802335 C16.7796698,9.79359727 15.7940958,10.7791712 14.9727842,11.7647451 C12.5088494,9.9578596 9.05934067,9.46507263 6.75966817,11.6004828 C3.31015943,14.0644176 3.1458971,19.9778612 6.43114353,22.6060583 C9.71638995,25.7270424 15.7940958,24.0844192 16.6154074,19.4850742 C14.6442596,19.4850742 12.5088494,19.4850742 10.5377016,19.4850742 C10.5377016,18.1709757 10.5377016,17.0211394 10.5377016,15.7070408 C13.9872103,15.7070408 17.2724567,15.7070408 20.7219655,15.7070408 C20.8862278,18.6637626 20.5577032,21.7847467 18.7508176,24.2486815 C16.1226205,28.1909773 10.8662262,29.1765512 6.75966817,27.533928 C2.65311014,25.7270424 -0.303611642,21.2919598 0.0249130006,16.5283524 Z M27.3333333,12 L30.6666667,12 C30.6666667,13.1666667 30.6666667,14.1666667 30.6666667,15.3333333 C31.8333333,15.3333333 32.8333333,15.3333333 34,15.3333333 L34,18.6666667 C32.8333333,18.6666667 31.8333333,18.6666667 30.6666667,18.6666667 C30.6666667,19.8333333 30.6666667,20.8333333 30.6666667,22 L27.3333333,22 C27.3333333,20.8333333 27.3333333,19.8333333 27.3333333,18.6666667 C26.1666667,18.6666667 25.1666667,18.6666667 24,18.6666667 L24,15.3333333 C25.1666667,15.3333333 26.1666667,15.3333333 27.3333333,15.3333333 C27.3333333,14.3333333 27.3333333,13.1666667 27.3333333,12 Z" id="Combined-Shape-Copy"></path>
        </g>
    </g>
</svg>