<?xml version="1.0" encoding="UTF-8" standalone="no"?>
<svg width="34px" height="34px" viewBox="0 0 34 34" version="1.1" xmlns="http://www.w3.org/2000/svg" xmlns:xlink="http://www.w3.org/1999/xlink">
    <!-- Generator: Sketch 47.1 (45422) - http://www.bohemiancoding.com/sketch -->
    <title>icon-mail</title>
    <desc>Created with Sketch.</desc>
    <defs></defs>
    <g id="0.0-Home" stroke="none" stroke-width="1" fill="none" fill-rule="evenodd">
        <g id="icon-mail" fill="#2ADD72">
            <path d="M29,14 L29,24.1505682 C29,25.2755682 28.0357143,26.1960227 26.8571429,26.1960227 L7.14285714,26.1960227 C5.96428571,26.1960227 5,25.2755682 5,24.1505682 L5,14 C5.40178571,14.421875 5.85714286,14.7926136 6.35267857,15.1122159 C8.57589286,16.5568182 10.8258929,18.0014205 13.0089286,19.5227273 C14.1339286,20.3153409 15.5267857,21.2869318 16.9866071,21.2869318 L17,21.2869318 L17.0133929,21.2869318 C18.4732143,21.2869318 19.8660714,20.3153409 20.9910714,19.5227273 C23.1741071,18.0142045 25.4241071,16.5568182 27.6607143,15.1122159 C28.1428571,14.7926136 28.5982143,14.421875 29,14 Z M29,10.0454545 C29,11.4772727 27.8883929,12.7684659 26.7098214,13.5482955 C24.6205357,14.9289773 22.5178571,16.3096591 20.4419643,17.703125 C19.5714286,18.2784091 18.0982143,19.4545455 17.0133929,19.4545455 L17,19.4545455 L16.9866071,19.4545455 C15.9017857,19.4545455 14.4285714,18.2784091 13.5580357,17.703125 C11.4821429,16.3096591 9.37946429,14.9289773 7.30357143,13.5482955 C6.35267857,12.9346591 5,11.4900568 5,10.3267045 C5,9.07386364 5.70982143,8 7.14285714,8 L26.8571429,8 C28.0223214,8 29,8.92045455 29,10.0454545 Z" id="Combined-Shape"></path>
        </g>
    </g>
</svg>