<?xml version="1.0" encoding="UTF-8" standalone="no"?>
<svg width="14px" height="14px" viewBox="0 0 14 14" version="1.1" xmlns="http://www.w3.org/2000/svg" xmlns:xlink="http://www.w3.org/1999/xlink">
    <!-- Generator: Sketch 47.1 (45422) - http://www.bohemiancoding.com/sketch -->
    <title>icon-h6-points</title>
    <desc>Created with Sketch.</desc>
    <defs></defs>
    <g id="0.0-Home" stroke="none" stroke-width="1" fill="none" fill-rule="evenodd">
        <g id="icon-h6-points" fill="#253238">
            <path d="M11.8607539,6.0118975 C11.9821999,5.99693414 12.1058929,5.98922881 12.2313856,5.98922881 C13.8882398,5.98922881 15.2313856,7.33237456 15.2313856,8.98922881 C15.2313856,10.6460831 13.8882398,11.9892288 12.2313856,11.9892288 C10.9251667,11.9892288 9.81392767,11.1544212 9.40209127,9.98922881 L7.06067985,9.98922881 C6.64884344,11.1544212 5.53760438,11.9892288 4.23138556,11.9892288 C2.57453131,11.9892288 1.23138556,10.6460831 1.23138556,8.98922881 C1.23138556,7.33237456 2.57453131,5.98922881 4.23138556,5.98922881 C4.35687822,5.98922881 4.48057121,5.99693414 4.60201723,6.0118975 L5.76160981,3.69271233 C5.42723302,3.20883921 5.23138556,2.62190532 5.23138556,1.98922881 C5.23138556,0.372293563 6.51058949,-0.945867595 8.11218925,-1.00844656 L8.23138556,-1.24683917 L8.35058186,-1.00844656 C9.95218162,-0.945867595 11.2313856,0.372293563 11.2313856,1.98922881 C11.2313856,2.62190532 11.0355381,3.20883921 10.7011613,3.69271233 L11.8607539,6.0118975 L11.8607539,6.0118975 Z M9.40209127,7.98922881 C9.54658094,7.58042992 9.77716036,7.21229822 10.0720459,6.90661737 L9.05597774,4.87448116 C8.79398825,4.94921516 8.51735975,4.98922881 8.23138556,4.98922881 C7.94541137,4.98922881 7.66878287,4.94921516 7.40679337,4.87448116 L6.39072526,6.90661737 C6.68561076,7.21229822 6.91619018,7.58042992 7.06067985,7.98922881 L9.40209127,7.98922881 L9.40209127,7.98922881 Z" id="Combined-Shape" transform="translate(8.231386, 5.371195) rotate(-300.000000) translate(-8.231386, -5.371195) "></path>
        </g>
    </g>
</svg>