<?xml version="1.0" encoding="UTF-8" standalone="no"?>
<svg width="104px" height="30px" viewBox="0 0 104 30" version="1.1" xmlns="http://www.w3.org/2000/svg" xmlns:xlink="http://www.w3.org/1999/xlink">
    <!-- Generator: Sketch 47.1 (45422) - http://www.bohemiancoding.com/sketch -->
    <title>Logotipo 01</title>
    <desc>Created with Sketch.</desc>
    <defs>
        <linearGradient x1="50%" y1="37.1556908%" x2="0%" y2="37.1556908%" id="linearGradient-1">
            <stop stop-color="#000000" stop-opacity="0" offset="0%"></stop>
            <stop stop-color="#000000" offset="100%"></stop>
        </linearGradient>
        <linearGradient x1="37.4308939%" y1="37.1556908%" x2="0%" y2="37.1556908%" id="linearGradient-2">
            <stop stop-color="#000000" stop-opacity="0" offset="0%"></stop>
            <stop stop-color="#000000" offset="100%"></stop>
        </linearGradient>
        <linearGradient x1="70.6266369%" y1="37.1556917%" x2="0%" y2="37.1556908%" id="linearGradient-3">
            <stop stop-color="#000000" stop-opacity="0" offset="0%"></stop>
            <stop stop-color="#000000" offset="100%"></stop>
        </linearGradient>
        <linearGradient x1="70.6266369%" y1="37.1556917%" x2="0%" y2="10.4923147%" id="linearGradient-4">
            <stop stop-color="#000000" stop-opacity="0" offset="0%"></stop>
            <stop stop-color="#000000" offset="100%"></stop>
        </linearGradient>
    </defs>
    <g id="Symbols" stroke="none" stroke-width="1" fill="none" fill-rule="evenodd">
        <g id="Menu/Menu-principal" transform="translate(-109.000000, -35.000000)">
            <g id="Menu-principal">
                <g id="Logotipo-03" transform="translate(109.000000, 35.000000)">
                    <g id="Logo">
                        <path d="M101.762994,21.7576682 C101.886503,21.7576682 101.977792,21.7319737 102.034713,21.6816552 C102.092709,21.6313367 102.124928,21.559606 102.13352,21.4664633 C102.14963,21.2866014 102.037935,21.1955998 101.79951,21.1955998 L101.413948,21.1955998 L101.364544,21.7576682 L101.762994,21.7576682 Z M100.936023,20.7523687 L101.871467,20.7523687 C102.030417,20.7523687 102.162518,20.7737808 102.266695,20.8155345 C102.371946,20.8572882 102.453569,20.9118891 102.514786,20.9771961 C102.57493,21.0435737 102.616815,21.1174455 102.641517,21.1988116 C102.665145,21.2801777 102.673737,21.3615438 102.666219,21.4407687 C102.654405,21.5767357 102.607149,21.7041379 102.523378,21.820834 C102.440681,21.9375301 102.32469,22.0285317 102.177554,22.0949093 L102.638295,23.0402548 L102.061563,23.0402548 L101.647003,22.1741341 L101.328029,22.1741341 L101.252849,23.0402548 L100.735187,23.0402548 L100.936023,20.7523687 Z M101.527791,23.7543493 C101.784474,23.7543493 102.025047,23.7083133 102.249511,23.6151705 C102.475049,23.5230983 102.672663,23.3946256 102.844501,23.2286815 C103.015265,23.0638081 103.154884,22.871099 103.263357,22.650554 C103.370756,22.4300091 103.436269,22.1901932 103.458823,21.9300359 C103.481376,21.6741609 103.457749,21.4343451 103.389013,21.2127295 C103.320278,20.9900434 103.215027,20.7962636 103.072187,20.6303196 C102.929346,20.4654462 102.754286,20.3348322 102.545932,20.2406188 C102.337578,20.1453348 102.107745,20.0982281 101.855357,20.0982281 C101.598674,20.0982281 101.3581,20.1453348 101.133637,20.2406188 C100.908099,20.3348322 100.709411,20.4654462 100.535425,20.6303196 C100.361439,20.7962636 100.219672,20.9900434 100.110125,21.2127295 C99.9995043,21.4343451 99.932917,21.6741609 99.9103632,21.9300359 C99.8878095,22.1901932 99.9114372,22.4300091 99.9801725,22.650554 C100.048908,22.871099 100.156307,23.0638081 100.300221,23.2286815 C100.44521,23.3946256 100.622418,23.5230983 100.830772,23.6151705 C101.039126,23.7083133 101.271107,23.7543493 101.527791,23.7543493 L101.527791,23.7543493 Z M101.485905,24.2307692 C101.163708,24.2307692 100.867287,24.1708153 100.596642,24.0519779 C100.325997,23.9331406 100.097237,23.7682672 99.9103632,23.559499 C99.7234892,23.3496601 99.5817226,23.1055618 99.4872116,22.8250629 C99.3927006,22.5456346 99.3594069,22.2447942 99.3873306,21.9225416 C99.4152543,21.6013597 99.5011735,21.3005192 99.645088,21.0200203 C99.7890025,20.740592 99.9737286,20.4975644 100.197118,20.2898667 C100.420508,20.0832397 100.678265,19.9183663 100.97039,19.7973877 C101.261441,19.6764092 101.57075,19.6153846 101.898317,19.6153846 C102.220513,19.6153846 102.51586,19.6764092 102.784358,19.7973877 C103.051781,19.9183663 103.279466,20.0832397 103.467415,20.2898667 C103.654289,20.4975644 103.796055,20.740592 103.890566,21.0200203 C103.985077,21.3005192 104.018371,21.6013597 103.990447,21.9225416 C103.962523,22.2447942 103.87553,22.5456346 103.731616,22.8250629 C103.587701,23.1055618 103.402975,23.3496601 103.176364,23.559499 C102.950826,23.7682672 102.693069,23.9331406 102.404166,24.0519779 C102.115262,24.1708153 101.809176,24.2307692 101.485905,24.2307692 L101.485905,24.2307692 Z" id="Fill-1" fill="#196134"></path>
                        <path d="M49.1579612,9.4757027 L44.8921903,9.4757027 L45.2455386,5.27936382 L49.1678037,5.27936382 C50.3154477,5.27936382 51.1717515,6.24908456 51.0723415,7.43316461 C50.9916324,8.38042865 50.5457639,9.4757027 49.1579612,9.4757027 M50.9493094,16.7976046 C50.8498994,17.9827054 49.8292246,18.9514054 48.6815807,18.9514054 L44.0919891,18.9514054 L44.4463217,14.7550665 L49.2061898,14.7550665 C50.6707646,14.7550665 51.0290342,15.8513613 50.9493094,16.7976046 M51.2278542,0 L41.6854802,0 L39.0151903,0 L36.9777778,24.1582954 L36.9925416,24.2307692 L49.8518625,24.2307692 C53.7820017,24.2307692 57.2780834,20.911262 57.620605,16.8527256 C57.7889129,14.8571424 57.1629253,13.0391712 56.0162656,11.7081019 C59.8588059,6.84929065 57.0330034,0 51.2278542,0" id="Fill-3" fill="#196134"></path>
                        <polygon id="Fill-6" fill="#196134" points="100.074013 5.19259934 100.533333 0 83.0327262 0 80.8888889 24.2307692 98.3894961 24.2307692 98.8498482 19.0381699 88.3484517 19.0381699 88.7313904 14.7121947 95.7316333 14.7121947 96.1909532 9.51959533 89.1907104 9.51959533 89.5736491 5.19259934"></polygon>
                        <polygon id="Fill-6" fill="url(#linearGradient-1)" opacity="0.25" points="88.7313904 14.7121947 95.7316333 14.7121947 96.1909532 9.51959533 89.1907104 9.51959533"></polygon>
                        <path d="M74.0239554,7.78798639 C73.9006842,9.21561333 72.646753,10.384323 71.2362067,10.384323 L66.9651616,10.384323 L67.0884328,8.95669605 L67.2773813,5.1916498 L67.4127776,5.1916498 L71.4130302,5.1916498 L71.6848332,5.1916498 C73.094369,5.1916498 74.1472266,6.36035945 74.0239554,7.78798639 M80.8594464,7.78798639 C81.2292601,3.50408218 78.0716978,0 73.8420798,0 L61.0259131,0 L60.5772866,5.1916498 L58.9333333,24.2297458 L65.7688244,24.2307692 L66.2487738,18.6686528 L66.5165351,15.5769962 L66.5165351,15.5769962 L66.643848,14.0941063 L67.3612462,15.5769962 L71.5464057,24.2307692 L79.4398064,24.2307692 L75.04549,15.147173 C78.1434376,14.0869425 80.5664246,11.1815426 80.8594464,7.78798639" id="Fill-8" fill="#196134"></path>
                        <path d="M66.643848,14.0941063 L67.3612462,15.5769962 L71.5464057,24.2307692 L79.4398064,24.2307692 L75.04549,15.147173 C76.8739203,14.5214176 78.467232,13.2529079 79.5262829,11.6206394 C78.8016154,11.1181246 76.8697171,10.1792742 73.730588,8.80408814 C73.2582687,9.73075537 72.291029,10.384323 71.2362067,10.384323 L66.9644409,10.3846154 L66.643848,14.0941063 Z" id="Fill-8" fill="url(#linearGradient-2)" opacity="0.25"></path>
                        <polygon id="Fill-10" fill="url(#linearGradient-3)" opacity="0.25" points="44.8933404 9.47307587 44.4426744 14.7576912 51.4811378 14.7576912 51.6986994 9.47307587"></polygon>
                        <path d="M49.0688875,27.3397436 L50.8852013,27.3397436 L50.7778917,27.8456694 L49.5627103,27.8456694 L49.4583815,28.3627758 L50.4042954,28.3627758 L50.3009603,28.8528623 L49.3550464,28.8528623 L49.2348199,29.4240086 L50.5414132,29.4240086 L50.4370845,29.9336613 L48.5333333,29.9336613 L49.0688875,27.3397436 Z M51.7399021,29.1948979 C51.8452244,29.2908654 51.9535276,29.3644715 52.0658052,29.4147846 C52.1770892,29.4650976 52.3042709,29.4902542 52.4453631,29.4902542 C52.5804936,29.4902542 52.6838288,29.4613708 52.7563621,29.4026722 C52.8279018,29.3449053 52.8636717,29.2750261 52.8636717,29.1948979 C52.8636717,29.1539021 52.8567164,29.1166331 52.8428059,29.0840228 C52.8288954,29.0514125 52.8060424,29.0206656 52.7732534,28.9908505 C52.7394708,28.9610353 52.6937648,28.9321519 52.6361356,28.9032685 C52.5775128,28.8743851 52.5039859,28.8436382 52.4155549,28.8100962 C52.1999421,28.7290362 52.035997,28.632137 51.924713,28.5184668 C51.8124354,28.4038648 51.7567934,28.2538573 51.7567934,28.0665809 C51.7567934,27.9603645 51.7796463,27.8588066 51.8253523,27.7619074 C51.8700646,27.6640765 51.9386235,27.5792897 52.0280481,27.5066152 C52.1184664,27.4348725 52.2277631,27.376174 52.3579257,27.3342464 C52.4880882,27.2913871 52.6381228,27.2699575 52.8100169,27.2699575 C53.0146999,27.2699575 53.1955364,27.3034996 53.3515327,27.3705836 C53.507529,27.4385994 53.6396788,27.5345669 53.7479819,27.6584861 L53.3614688,27.9929748 C53.2809866,27.9100514 53.1935492,27.847626 53.0981629,27.8066301 C53.0027766,27.7647026 52.8974543,27.7442047 52.7812023,27.7442047 C52.6430909,27.7442047 52.5427366,27.7702929 52.4801393,27.8215377 C52.4185357,27.8737142 52.3867403,27.9407983 52.3867403,28.0246534 C52.3867403,28.0628541 52.3936955,28.0973278 52.407606,28.127143 C52.4215165,28.1569581 52.4473503,28.1867733 52.4841138,28.214725 C52.5218708,28.2436084 52.5705576,28.2724918 52.6321612,28.3023069 C52.6927712,28.3321221 52.7712662,28.3656641 52.8676461,28.4010696 C53.103131,28.4895833 53.2730378,28.5930046 53.3783601,28.7104018 C53.4836825,28.8287306 53.5363436,28.9694208 53.5363436,29.1324724 C53.5363436,29.2750261 53.5085226,29.4008087 53.4528806,29.5098204 C53.3972386,29.618832 53.3207309,29.7101409 53.2223638,29.7818836 C53.1249903,29.854558 53.0087383,29.9095297 52.8765885,29.9458669 C52.7434452,29.9822041 52.6003658,29.9999068 52.4453631,29.9999068 C52.2376992,29.9999068 52.0379842,29.9682282 51.8452244,29.904871 C51.6534582,29.8415139 51.4865323,29.7380926 51.3454401,29.5955389 L51.7399021,29.1948979 Z M55.4189309,27.8492099 L54.5525056,27.8492099 L54.6598151,27.3395572 L56.9828685,27.3395572 L56.8745653,27.8492099 L56.0160888,27.8492099 L55.5888378,29.933475 L54.9877055,29.933475 L55.4189309,27.8492099 Z M58.745428,26.5384615 L59.3882918,26.5384615 L58.8119997,27.1450134 L58.3559341,27.1450134 L58.745428,26.5384615 Z M58.285388,27.3397436 L58.9570663,27.3397436 L59.3882918,29.9336613 L58.7583449,29.9336613 L58.6788564,29.3392218 L57.7329424,29.3392218 L57.4100201,29.9336613 L56.7582139,29.9336613 L58.285388,27.3397436 Z M58.629176,28.8836091 L58.5049751,27.8885286 L57.9654465,28.8836091 L58.629176,28.8836091 Z M61.545214,29.4671474 C61.6753766,29.4671474 61.7826861,29.4568985 61.8671427,29.4364006 C61.9506057,29.4149709 62.0370495,29.3767703 62.1254806,29.3190034 L62.1960267,28.9574948 L61.6982295,28.9574948 L61.7985838,28.5028138 L62.8478329,28.5028138 L62.60738,29.6534921 C62.4662878,29.7625037 62.3003554,29.8472905 62.1115701,29.9069208 C61.9217911,29.9665511 61.7220761,29.9963663 61.512425,29.9963663 C61.3325821,29.9963663 61.1666497,29.9693463 61.0166151,29.9162381 C60.8655868,29.8631298 60.7354243,29.7867285 60.6261275,29.6870341 C60.5168307,29.5873397 60.4323741,29.4671474 60.3717641,29.3273889 C60.3101605,29.1866987 60.2803522,29.0301692 60.2803522,28.8568687 C60.2803522,28.6416406 60.3191029,28.4375932 60.3985915,28.2437947 C60.4770864,28.050928 60.5863832,27.8822861 60.7264818,27.737869 C60.8655868,27.5943836 61.0315192,27.4807133 61.2232853,27.3959265 C61.4160451,27.3120714 61.6256962,27.2692121 61.8522386,27.2692121 C62.1314422,27.2692121 62.3579846,27.3223204 62.5298786,27.4276051 C62.7027663,27.5319581 62.8339224,27.6782387 62.9223534,27.8645833 L62.4245563,28.1329196 C62.3550038,28.0164542 62.2755152,27.9325991 62.1841034,27.8804226 C62.0926915,27.8282461 61.9694843,27.8021579 61.8144816,27.8021579 C61.679351,27.8021579 61.5571373,27.8301096 61.4478405,27.886013 C61.3385438,27.9419164 61.2451447,28.0155225 61.1676433,28.1077631 C61.090142,28.2000037 61.0305256,28.3052885 60.9878005,28.424549 C60.9440818,28.5438096 60.923216,28.6658654 60.923216,28.7907163 C60.923216,28.8810935 60.9351393,28.9677437 60.9599795,29.0488037 C60.9848196,29.1307953 61.0235703,29.202538 61.0762315,29.2649635 C61.1288927,29.3273889 61.1934771,29.3767703 61.2719721,29.4131075 C61.3484798,29.4494447 61.4398917,29.4671474 61.545214,29.4671474 Z M64.1831414,27.3397436 L64.7842737,27.3397436 L64.2457387,29.9336613 L63.6436128,29.9336613 L64.1831414,27.3397436 Z M67.1278947,27.2700507 C67.3017759,27.2700507 67.4637339,27.2961389 67.6137686,27.3492472 C67.7628096,27.4023554 67.8919785,27.477825 68.0012753,27.5747242 C68.1105721,27.6725552 68.1950287,27.7899523 68.2566323,27.9287791 C68.3172424,28.0676058 68.3480442,28.2222719 68.3480442,28.393709 C68.3480442,28.6061419 68.3102871,28.8101893 68.2357666,29.0039878 C68.161246,29.1987179 68.0549301,29.370155 67.9178123,29.5173673 C67.7816881,29.6655113 67.6147622,29.7829085 67.418028,29.8695587 C67.2222874,29.956209 67.0027002,30 66.7592665,30 C66.5824044,30 66.4184593,29.97298 66.2694182,29.9180083 C66.1203771,29.8639684 65.9912082,29.7875671 65.8819114,29.6888044 C65.7726147,29.5900417 65.6871645,29.4726446 65.6265544,29.3347496 C65.5659444,29.1977862 65.5351426,29.0449836 65.5351426,28.8763417 C65.5351426,28.662977 65.5738932,28.4598614 65.6513946,28.2651312 C65.7288959,28.0713327 65.8381927,27.8998956 65.9792849,27.7517516 C66.1203771,27.6045394 66.2882967,27.4871422 66.4830437,27.3995602 C66.6777907,27.31291 66.8934034,27.2700507 67.1278947,27.2700507 Z M66.1740319,28.79435 C66.1740319,28.8847272 66.1869488,28.9704457 66.2137762,29.0505739 C66.23961,29.1316339 66.2793543,29.2015131 66.3320154,29.2611434 C66.3846766,29.3207737 66.4502547,29.3673599 66.5307369,29.4009019 C66.611219,29.4344439 66.7036245,29.451215 66.8089468,29.451215 C66.9440774,29.451215 67.0672847,29.424195 67.1775751,29.3682916 C67.2878654,29.3123882 67.3832517,29.2387821 67.4617467,29.1465414 C67.5412352,29.0543008 67.6008517,28.9499478 67.6425832,28.8334824 C67.6843147,28.7160853 67.7041868,28.5968247 67.7041868,28.4757007 C67.7041868,28.3843918 67.6912699,28.2986732 67.6654361,28.218545 C67.6386087,28.1384168 67.5998581,28.0676058 67.5491841,28.0070438 C67.4975165,27.9455501 67.4329321,27.8980322 67.3544371,27.8626267 C67.2749485,27.828153 67.1815495,27.8104502 67.0742399,27.8104502 C66.9361285,27.8104502 66.810934,27.8384019 66.6986564,27.8961688 C66.5863788,27.9530039 66.4919862,28.0275417 66.4144848,28.1197823 C66.3369835,28.212023 66.2773671,28.316376 66.2366292,28.4347048 C66.1948977,28.5530337 66.1740319,28.6722943 66.1740319,28.79435 Z M72.8765077,28.9153809 L72.3578449,29.3700619 L72.7354155,29.9337545 L72.1054687,29.9337545 L71.9514596,29.7082774 C71.8083801,29.8144939 71.6782176,29.8890318 71.5619656,29.931891 C71.4457136,29.9747503 71.3244935,29.9961799 71.1973118,29.9961799 C71.0641685,29.9961799 70.9479164,29.9766137 70.8485557,29.9374814 C70.749195,29.8992807 70.665732,29.8471042 70.5991603,29.7818836 C70.5335823,29.7175947 70.4829083,29.6430568 70.4481321,29.55827 C70.4133558,29.4744149 70.3964645,29.3868329 70.3964645,29.2964557 C70.3964645,29.1175648 70.4521065,28.9573084 70.5623969,28.8156865 C70.6726873,28.6740645 70.8525301,28.5436233 71.1019255,28.4243627 C71.0572132,28.3498248 71.0234306,28.2743552 70.999584,28.1988857 C70.976731,28.1243478 70.9648077,28.0526051 70.9648077,27.985521 C70.9648077,27.8839632 70.9836863,27.7898591 71.0204497,27.7032089 C71.0582068,27.6165586 71.1128552,27.541089 71.1843949,27.4777318 C71.2559346,27.4143746 71.3473465,27.3640616 71.4566432,27.3258609 C71.5649464,27.288592 71.6921281,27.2699575 71.8352075,27.2699575 C71.9961719,27.2699575 72.1422321,27.3062947 72.2753755,27.3789691 C72.4085188,27.4516436 72.5148348,27.5811531 72.5943233,27.7674978 L72.1630979,27.9817941 C72.1134175,27.8858266 72.0647308,27.8178108 72.0180312,27.776815 C71.9713317,27.7367509 71.9037664,27.7171847 71.8153354,27.7171847 C71.7398213,27.7171847 71.6742432,27.7404778 71.6156204,27.787064 C71.5579912,27.8336501 71.5291766,27.8988708 71.5291766,27.9817941 C71.5291766,28.0311755 71.5401062,28.0814885 71.5619656,28.1355285 C71.583825,28.1886367 71.6106523,28.2398815 71.6404606,28.2883311 L72.1014942,28.9768746 L72.5486174,28.5799605 L72.8765077,28.9153809 Z M71.3006469,29.5060935 C71.3721866,29.5060935 71.4377647,29.4902542 71.4973811,29.4595073 C71.5569976,29.4278287 71.6245628,29.3812425 71.6990834,29.3197488 L71.338404,28.7784176 C71.2410305,28.8250037 71.1565739,28.8809071 71.0850342,28.9461278 C71.0134945,29.0104167 70.976731,29.0952035 70.976731,29.1986248 C70.976731,29.2815482 71.0055456,29.3542226 71.0621812,29.4147846 C71.1188168,29.4753466 71.1983054,29.5060935 71.3006469,29.5060935 Z M75.5022138,27.3397436 L77.3185275,27.3397436 L77.2112179,27.8456694 L75.9960365,27.8456694 L75.8917077,28.3627758 L76.8376217,28.3627758 L76.7342865,28.8528623 L75.7883726,28.8528623 L75.6681462,29.4240086 L76.9747395,29.4240086 L76.8714043,29.9336613 L74.9666596,29.9336613 L75.5022138,27.3397436 Z M78.4679322,27.3397436 L79.0521731,27.3397436 L79.4466351,28.5686866 L80.4134148,27.3397436 L81.0185215,27.3397436 L80.6041873,29.9336613 L79.9821893,29.9336613 L80.2554313,28.284511 L79.4843922,29.2488447 L79.1644507,29.2488447 L78.8037713,28.2770572 L78.397386,29.9336613 L77.8081771,29.9336613 L78.4679322,27.3397436 Z M82.2590399,27.3399299 L83.2049538,27.3399299 C83.3291547,27.3399299 83.4414323,27.3594961 83.540793,27.3976968 C83.6401537,27.4368292 83.7246103,27.4890057 83.7931692,27.555158 C83.8627217,27.6213104 83.9163765,27.6986434 83.95314,27.7871571 C83.990897,27.8747391 84.008782,27.9688432 84.008782,28.0666741 C84.008782,28.2306574 83.9779801,28.3713476 83.9163765,28.4906082 C83.8537793,28.6098688 83.7703163,28.7086315 83.6669811,28.7868962 C83.563646,28.8642293 83.4424259,28.9219961 83.3043145,28.9592651 C83.1662032,28.9974657 83.0221301,29.0161002 82.8730891,29.0161002 L82.4994928,29.0161002 L82.3087203,29.9338476 L81.7234857,29.9338476 L82.2590399,27.3399299 Z M82.9058781,28.5493068 C83.0439895,28.5493068 83.1592479,28.5157648 83.2496662,28.447749 C83.341078,28.3806649 83.3867839,28.2707215 83.3867839,28.1179189 C83.3867839,28.0238148 83.3569757,27.949277 83.2983529,27.8933736 C83.2387365,27.8384019 83.1532863,27.8104502 83.0429959,27.8104502 L82.7478946,27.8104502 L82.5948791,28.5493068 L82.9058781,28.5493068 Z M85.4776313,28.985167 L85.2828843,29.9336613 L84.6976497,29.9336613 L85.2332039,27.3397436 L86.1950156,27.3397436 C86.3192165,27.3397436 86.4314941,27.3583781 86.5308548,27.395647 C86.6302155,27.4338476 86.7146721,27.4850924 86.7822374,27.5512448 C86.8498026,27.6173971 86.9024638,27.6947302 86.9392273,27.7813804 C86.9769843,27.8680307 86.9958629,27.9602713 86.9958629,28.059034 C86.9958629,28.1708408 86.9799652,28.2723986 86.9481697,28.3646392 C86.9163743,28.4568798 86.871662,28.5379398 86.8150264,28.6096825 C86.7583908,28.6804934 86.6928127,28.7410555 86.6182922,28.7904368 C86.5437717,28.8398181 86.4632895,28.8789505 86.3778393,28.9069022 L86.7713077,29.9336613 L86.1244695,29.9336613 L85.7926047,28.985167 L85.4776313,28.985167 Z M85.7180842,27.8102639 L85.576992,28.5183736 L85.9048823,28.5183736 C86.0400129,28.5183736 86.1532841,28.486695 86.2446959,28.4233378 C86.3361078,28.3590489 86.3818137,28.2546959 86.3818137,28.109347 C86.3818137,28.0189699 86.3520055,27.9462955 86.2923891,27.8922555 C86.2327727,27.8372838 86.1493097,27.8102639 86.0420001,27.8102639 L85.7180842,27.8102639 Z M88.3144788,27.3397436 L90.1307925,27.3397436 L90.023483,27.8456694 L88.8083015,27.8456694 L88.7039728,28.3627758 L89.6498867,28.3627758 L89.5465516,28.8528623 L88.6006377,28.8528623 L88.4804112,29.4240086 L89.7870045,29.4240086 L89.6836694,29.9336613 L87.7789246,29.9336613 L88.3144788,27.3397436 Z M92.0183479,29.4671474 C92.1485104,29.4671474 92.25582,29.4568985 92.3402766,29.4364006 C92.4237396,29.4149709 92.5101834,29.3767703 92.5986144,29.3190034 L92.6691605,28.9574948 L92.1713634,28.9574948 L92.2717177,28.5028138 L93.3209667,28.5028138 L93.0805138,29.6534921 C92.9394216,29.7625037 92.7734893,29.8472905 92.5847039,29.9069208 C92.394925,29.9665511 92.1952099,29.9963663 91.9855588,29.9963663 C91.805716,29.9963663 91.6397836,29.9693463 91.4897489,29.9162381 C91.3387206,29.8631298 91.2085581,29.7867285 91.0992613,29.6870341 C90.9899646,29.5873397 90.905508,29.4671474 90.8448979,29.3273889 C90.7832943,29.1866987 90.7534861,29.0301692 90.7534861,28.8568687 C90.7534861,28.6416406 90.7922368,28.4375932 90.8717253,28.2437947 C90.9502203,28.050928 91.0595171,27.8822861 91.1996157,27.737869 C91.3387206,27.5943836 91.504653,27.4807133 91.6964192,27.3959265 C91.889179,27.3120714 92.0988301,27.2692121 92.3253725,27.2692121 C92.6045761,27.2692121 92.8311185,27.3223204 93.0030125,27.4276051 C93.1759001,27.5319581 93.3070562,27.6782387 93.3954873,27.8645833 L92.8976901,28.1329196 C92.8281376,28.0164542 92.7486491,27.9325991 92.6572372,27.8804226 C92.5658254,27.8282461 92.4426181,27.8021579 92.2876154,27.8021579 C92.1524848,27.8021579 92.0302712,27.8301096 91.9209744,27.886013 C91.8116776,27.9419164 91.7182785,28.0155225 91.6407772,28.1077631 C91.5632758,28.2000037 91.5036594,28.3052885 91.4609343,28.424549 C91.4172156,28.5438096 91.3963499,28.6658654 91.3963499,28.7907163 C91.3963499,28.8810935 91.4082731,28.9677437 91.4331133,29.0488037 C91.4579535,29.1307953 91.4967042,29.202538 91.5493653,29.2649635 C91.6020265,29.3273889 91.6676046,29.3767703 91.7451059,29.4131075 C91.8216137,29.4494447 91.9130255,29.4671474 92.0183479,29.4671474 Z M95.8465172,27.2700507 C96.0203984,27.2700507 96.1823564,27.2961389 96.332391,27.3492472 C96.4814321,27.4023554 96.610601,27.477825 96.7198978,27.5747242 C96.8291946,27.6725552 96.9136512,27.7899523 96.9752548,27.9287791 C97.0358648,28.0676058 97.0666667,28.2222719 97.0666667,28.393709 C97.0666667,28.6061419 97.0289096,28.8101893 96.9543891,29.0039878 C96.8798685,29.1987179 96.7735526,29.370155 96.6364348,29.5173673 C96.5003106,29.6655113 96.3333847,29.7829085 96.1366505,29.8695587 C95.9409099,29.956209 95.7213227,30 95.477889,30 C95.3010269,30 95.1370817,29.97298 94.9880407,29.9180083 C94.8389996,29.8639684 94.7098307,29.7875671 94.6005339,29.6888044 C94.4912371,29.5900417 94.4057869,29.4726446 94.3451769,29.3347496 C94.2845669,29.1977862 94.2537651,29.0449836 94.2537651,28.8763417 C94.2537651,28.662977 94.2925157,28.4598614 94.3700171,28.2651312 C94.4475184,28.0713327 94.5568152,27.8998956 94.6979074,27.7517516 C94.8389996,27.6045394 95.0069192,27.4871422 95.2016662,27.3995602 C95.3964132,27.31291 95.6120259,27.2700507 95.8465172,27.2700507 Z M94.8926544,28.79435 C94.8926544,28.8847272 94.9055713,28.9704457 94.9323987,29.0505739 C94.9582325,29.1316339 94.9979768,29.2015131 95.0506379,29.2611434 C95.1032991,29.3207737 95.1688772,29.3673599 95.2493593,29.4009019 C95.3298415,29.4344439 95.422247,29.451215 95.5275693,29.451215 C95.6626999,29.451215 95.7859072,29.424195 95.8961975,29.3682916 C96.0074815,29.3123882 96.1018742,29.2387821 96.1803692,29.1465414 C96.2598577,29.0543008 96.3194742,28.9499478 96.3612056,28.8334824 C96.4029371,28.7160853 96.4228093,28.5968247 96.4228093,28.4757007 C96.4228093,28.3843918 96.4098924,28.2986732 96.3840586,28.218545 C96.3572312,28.1384168 96.3184805,28.0676058 96.2678066,28.0070438 C96.216139,27.9455501 96.1515546,27.8980322 96.0730596,27.8626267 C95.993571,27.828153 95.900172,27.8104502 95.7928624,27.8104502 C95.654751,27.8104502 95.5295565,27.8384019 95.4172789,27.8961688 C95.3050013,27.9530039 95.2106087,28.0275417 95.1331073,28.1197823 C95.055606,28.212023 94.9959895,28.316376 94.9552517,28.4347048 C94.9135202,28.5530337 94.8926544,28.6722943 94.8926544,28.79435 Z" id="Combined-Shape" fill="#000000"></path>
                        <path d="M32.6360577,14.3267816 L32.27835,12.63465 L31.8398379,10.5662655 L29.6039186,0 L29.5576038,0 L29.555633,0 L26.6121818,0 L22.9089714,0 L20.3577175,0 L19.4757662,0 L16.9915209,7.04317099 C11.2366649,6.23634009 6.93333333,6.95363489 6.93333333,6.95363489 C10.4778911,7.08944807 13.6657266,7.61962249 16.5106357,8.39727871 L16.513592,8.39828473 C16.6998364,8.44959193 16.8841101,8.50089913 17.0673983,8.55421838 C19.1791546,9.16386866 21.0957975,9.91033815 22.8242252,10.7292413 L24.2964435,6.55826763 L24.2974289,6.56229172 L24.4097669,6.2453943 L24.8945938,8.87312785 L24.9330252,9.08238075 L24.9547044,9.20109154 L25.1852928,10.4515788 L25.1852928,10.4515788 L25.3813915,11.5139397 L25.4947149,12.1286201 C29.2511381,14.2986129 31.8802401,16.7030093 33.4707089,18.4052011 C33.475636,18.4102313 33.4923881,18.4353818 33.5111111,18.4615385 L32.6360577,14.3267816 Z" id="Fill-46" fill="#FDCA09"></path>
                        <path d="M35.8222222,24.2307692 L35.3979731,22.2306901 C35.3868353,22.2162491 35.3746849,22.2028396 35.3635471,22.1883986 C33.3931679,19.6870104 31.1008049,17.4424657 28.5411346,15.5197492 C27.9872818,15.103023 27.4192537,14.7017694 26.8400878,14.3159883 C26.8248999,14.3056733 26.8107245,14.2953583 26.7955366,14.2850433 C25.7364325,13.5805286 24.6378398,12.9286204 23.5038086,12.3324132 C23.3934431,12.2746492 23.282065,12.2199797 23.1706869,12.1632472 C23.1696744,12.1622157 23.1686619,12.1622157 23.1676494,12.1611842 C21.2904228,11.2008574 19.3190311,10.3931927 17.2696747,9.75675697 C17.1582967,9.72271746 17.0489437,9.68661495 16.9375656,9.65360694 C16.8727638,9.63400843 16.805937,9.61544143 16.7411352,9.59687442 C16.5629303,9.54426791 16.3837129,9.49269289 16.2044954,9.44214938 C13.2732274,8.62829564 10.1921052,8.1579315 7.00669261,8.08675798 C4.61611439,8.03208846 2.27413751,8.20641201 0,8.58290962 C0.200480511,8.58394112 0.400961022,8.58497262 0.602454061,8.58909862 C6.0569415,8.71287866 11.2086831,9.99812804 15.8217599,12.1972867 L11.5701556,24.2307692 L18.9018696,24.2307692 L20.4955884,19.7210499 L21.8746513,15.8178528 L21.8959144,15.8333253 C21.9698289,15.8900578 22.0417184,15.9467903 22.1115828,16.0024913 C24.0860121,17.4837257 26.355087,19.5828289 28.1320733,21.5179234 L28.4530446,21.9222716 L28.9431081,24.2307692 L35.8222222,24.2307692 Z" id="Fill-48" fill="#196134"></path>
                        <polygon id="Fill-51" fill="url(#linearGradient-4)" opacity="0.25" points="29.6044548 0 26.6610141 0 24.4977743 6.03004327 25.4514606 11.1276758 32.5866631 13.8461538"></polygon>
                    </g>
                </g>
            </g>
        </g>
    </g>
</svg>